<?xml version="1.0" standalone="no"?>
<!DOCTYPE svg PUBLIC "-//W3C//DTD SVG 20010904//EN"
 "http://www.w3.org/TR/2001/REC-SVG-20010904/DTD/svg10.dtd">
<svg version="1.0" xmlns="http://www.w3.org/2000/svg"
 width="512.000000pt" height="512.000000pt" viewBox="0 0 512.000000 512.000000"
 preserveAspectRatio="xMidYMid meet">

<g transform="translate(0.000000,512.000000) scale(0.100000,-0.100000)"
fill="#000000" stroke="none">
<path d="M2554 4534 c-27 -14 -67 -40 -89 -58 -104 -84 -184 -121 -302 -141
-36 -6 -43 -4 -43 9 0 37 -139 14 -259 -43 -94 -44 -256 -174 -299 -238 -33
-50 -36 -62 -35 -117 1 -39 -4 -66 -12 -76 -53 -59 -69 -187 -39 -306 12 -50
13 -67 3 -85 -6 -12 -14 -59 -16 -103 -4 -64 -2 -89 12 -121 12 -25 21 -80 26
-150 8 -130 25 -271 34 -284 3 -6 7 -51 10 -102 2 -64 8 -96 19 -108 12 -13
16 -39 16 -102 l0 -84 -30 55 c-34 62 -72 100 -101 100 -32 0 -21 -28 22 -56
49 -31 72 -78 99 -205 11 -51 20 -94 20 -96 0 -2 27 -3 60 -3 66 0 66 0 49 65
-6 22 -15 121 -19 220 -5 99 -13 218 -19 265 -6 53 -6 98 -1 120 5 19 16 87
25 150 16 121 45 231 76 291 27 53 111 125 177 150 52 19 69 21 202 15 80 -4
188 -10 240 -14 52 -4 209 -4 348 2 224 8 265 7 350 -9 123 -22 225 -52 266
-80 63 -42 111 -169 142 -374 22 -150 23 -179 9 -291 -8 -55 -15 -162 -16
-237 -2 -128 -10 -209 -24 -253 -6 -18 -1 -20 54 -20 l60 0 14 53 c8 28 20 77
27 107 16 69 45 124 77 141 32 17 50 49 32 59 -18 12 -51 -13 -79 -60 -14 -23
-33 -51 -42 -63 -17 -21 -17 -20 -18 52 0 54 4 77 15 85 17 13 47 124 65 241
7 44 19 96 27 115 18 44 20 157 3 231 -15 67 -11 113 25 248 40 156 32 226
-40 351 -8 14 -25 51 -39 83 -19 43 -48 81 -113 146 -48 48 -96 92 -107 98
-16 9 -15 12 18 32 44 28 66 67 66 119 0 73 -30 75 -113 9 l-37 -31 -46 22
c-25 12 -73 44 -107 70 -93 71 -169 105 -252 111 -62 5 -80 12 -136 48 -123
80 -174 90 -255 47z"/>
<path d="M2025 2964 c-41 -6 -134 -43 -168 -67 -19 -13 -27 -26 -25 -41 4 -26
26 -26 118 -1 91 25 181 24 262 -4 82 -27 111 -19 106 32 -3 27 -9 33 -59 53
-56 23 -174 37 -234 28z"/>
<path d="M2970 2957 c-58 -14 -114 -40 -125 -57 -10 -17 3 -57 21 -64 9 -3 46
3 83 15 86 28 193 28 281 0 86 -27 100 -27 100 3 0 74 -218 136 -360 103z"/>
<path d="M2010 2716 c-90 -24 -162 -91 -177 -166 -6 -35 10 -41 27 -10 6 11 8
20 5 20 -7 0 0 9 50 67 81 94 261 99 353 10 45 -43 73 -82 88 -126 12 -32 13
-33 14 -10 0 49 -32 120 -72 159 -65 62 -182 85 -288 56z"/>
<path d="M2965 2716 c-51 -14 -105 -47 -105 -63 0 -7 -4 -13 -9 -13 -13 0 -49
-78 -57 -120 l-6 -35 24 44 c40 76 93 128 154 150 65 25 150 27 202 6 51 -22
110 -81 137 -138 25 -54 40 -42 20 16 -34 99 -128 160 -250 163 -38 1 -88 -4
-110 -10z"/>
<path d="M2030 2658 c-48 -33 -72 -70 -77 -120 -11 -95 55 -169 155 -174 l57
-3 -44 9 c-45 10 -84 38 -103 75 -10 19 -9 19 13 -1 49 -44 117 -43 162 2 30
30 44 93 27 124 -7 13 -8 20 -2 16 18 -11 34 -77 29 -118 -4 -31 -3 -38 6 -29
7 7 12 41 12 79 0 55 -4 73 -24 101 -45 62 -148 81 -211 39z m50 -53 c12 -22
12 -28 -2 -42 -22 -21 -68 -10 -68 16 0 22 25 51 44 51 7 0 19 -11 26 -25z"/>
<path d="M2973 2662 c-52 -28 -76 -68 -81 -131 -6 -100 60 -172 158 -170 45 1
45 1 10 8 -45 9 -70 23 -97 55 -32 37 -29 39 13 11 44 -30 88 -32 131 -5 43
26 56 54 51 111 -6 59 5 56 22 -6 10 -34 10 -55 2 -81 -13 -44 -5 -44 14 1 58
140 -90 279 -223 207z m39 -57 c21 -47 -39 -76 -66 -32 -9 15 -7 22 13 38 30
25 39 24 53 -6z"/>
<path d="M1205 1268 c-84 -27 -144 -60 -171 -91 -42 -49 -121 -328 -169 -589
l-4 -28 1695 0 1696 0 -7 52 c-21 176 -97 483 -126 514 -19 20 -84 55 -175 94
l-44 19 0 -97 c0 -53 -7 -180 -14 -282 -8 -102 -12 -188 -10 -191 4 -7 -36
-43 -68 -60 -18 -10 -275 -12 -1228 -10 l-1205 2 -31 21 c-17 12 -39 35 -48
52 -18 35 -36 213 -36 371 0 114 -10 235 -19 234 -3 0 -19 -5 -36 -11z"/>
</g>
</svg>
